<?xml version="1.0" encoding="utf-8"?>
<!-- Generator: Adobe Illustrator 15.0.0, SVG Export Plug-In  -->
<!DOCTYPE svg PUBLIC "-//W3C//DTD SVG 1.1//EN" "http://www.w3.org/Graphics/SVG/1.1/DTD/svg11.dtd" [
	<!ENTITY ns_flows "http://ns.adobe.com/Flows/1.0/">
]>
<svg version="1.1"
	 xmlns="http://www.w3.org/2000/svg" xmlns:xlink="http://www.w3.org/1999/xlink" xmlns:a="http://ns.adobe.com/AdobeSVGViewerExtensions/3.0/"
	 x="0px" y="0px" width="115px" height="32px" viewBox="21.125 -1.789 115 32"
	 overflow="visible" enable-background="new 21.125 -1.789 115 32" xml:space="preserve">
<defs>
</defs>
<g>
	<g>
		<path fill="#FFFFFF" d="M66.332,14.393l0.78-3.583l2.851,0.622l-0.323,1.481l12.449-5.57c-0.208-0.288-0.424-0.571-0.657-0.848
			c-4.859-5.769-13.222-6.719-18.68-2.123c-3.912,3.295-5.267,8.547-3.93,13.382L66.332,14.393z M69.164,5.505
			c0.91,0,1.646,0.856,1.646,1.914c0,1.056-0.737,1.912-1.646,1.912c-0.909,0-1.646-0.856-1.646-1.912
			C67.518,6.361,68.254,5.505,69.164,5.505z M77.086,10.639l-7.72,3.533l-1.764,8.098l-2.851-0.621l1.298-5.958l-12.142,5.558
			c2.75,4.195,7.591,6.643,12.648,5.878c7.055-1.066,11.859-7.976,10.733-15.434C77.234,11.335,77.165,10.984,77.086,10.639z"/>
	</g>
</g>
<g>
	<defs>
		<rect id="SVGID_1_" width="149.299" height="37.325"/>
	</defs>
	<clipPath id="SVGID_5_">
		<use xlink:href="#SVGID_1_"  overflow="visible"/>
	</clipPath>
	<g clip-path="url(#SVGID_5_)">
		<defs>
			<rect id="SVGID_3_" x="44.763" y="25.806" width="39.858" height="10.69"/>
		</defs>
		<clipPath id="SVGID_6_">
			<use xlink:href="#SVGID_3_"  overflow="visible"/>
		</clipPath>
		<g clip-path="url(#SVGID_6_)">
			<defs>
				<rect id="SVGID_4_" x="44.763" y="25.806" width="39.858" height="10.69"/>
			</defs>
			<clipPath id="SVGID_7_">
				<use xlink:href="#SVGID_4_"  overflow="visible"/>
			</clipPath>
		</g>
	</g>
	<g clip-path="url(#SVGID_5_)">
		<defs>
			<rect id="SVGID_2_" width="149.299" height="37.325"/>
		</defs>
		<clipPath id="SVGID_8_">
			<use xlink:href="#SVGID_2_"  overflow="visible"/>
		</clipPath>
		<ellipse clip-path="url(#SVGID_8_)" fill="none" cx="69.156" cy="7.427" rx="1.646" ry="1.913"/>
		<path clip-path="url(#SVGID_8_)" fill="#FFFFFF" d="M29.667,9.088c0-0.286,0.088-0.537,0.264-0.751
			c0.175-0.215,0.386-0.323,0.632-0.323s0.456,0.108,0.632,0.323s0.264,0.465,0.264,0.751c0,0.295-0.088,0.547-0.264,0.758
			c-0.176,0.211-0.386,0.316-0.632,0.316c-0.252,0-0.464-0.105-0.637-0.316C29.753,9.636,29.667,9.383,29.667,9.088 M29.746,12.275
			h1.612v10.43h-1.612V12.275z"/>
		<path clip-path="url(#SVGID_8_)" fill="#FFFFFF" d="M35.475,12.239v1.002h0.04c0.418-0.764,0.982-1.146,1.692-1.146
			c1.26,0,1.891,0.824,1.891,2.471v8.139h-1.612v-7.578c0-1.026-0.338-1.54-1.015-1.54c-0.312,0-0.559,0.138-0.741,0.412
			c-0.183,0.274-0.273,0.65-0.273,1.128v7.578h-1.632V12.239H35.475z"/>
		<path clip-path="url(#SVGID_8_)" fill="#FFFFFF" d="M44.827,8.874C44.74,8.778,44.55,8.73,44.259,8.73
			c-0.531,0-0.796,0.486-0.796,1.456v2.088h1.343v1.48h-1.343v8.95h-1.612v-8.95h-0.876v-1.48h0.876v-2.232
			c0-2.036,0.646-3.055,1.94-3.055c0.398,0,0.743,0.048,1.036,0.143V8.874z"/>
		<path clip-path="url(#SVGID_8_)" fill="#FFFFFF" d="M49.252,12.096c0.829,0,1.495,0.377,2,1.133s0.756,2.22,0.756,4.392
			c0,2.037-0.264,3.417-0.791,4.141c-0.527,0.724-1.176,1.086-1.945,1.086c-0.962,0-1.675-0.434-2.139-1.301
			c-0.464-0.867-0.697-2.2-0.697-3.998c0-2.204,0.265-3.664,0.796-4.38c0.531-0.715,1.191-1.074,1.98-1.074H49.252z M50.276,18.111
			c0-1.774-0.069-2.952-0.208-3.533c-0.14-0.58-0.418-0.871-0.836-0.871c-0.397,0-0.669,0.227-0.815,0.68s-0.219,1.221-0.219,2.303
			c0,2.108,0.081,3.397,0.243,3.866c0.163,0.47,0.433,0.704,0.812,0.704c0.404,0,0.676-0.236,0.816-0.71
			C50.207,20.078,50.276,19.264,50.276,18.111"/>
		<path clip-path="url(#SVGID_8_)" fill="#FFFFFF" d="M84.328,14.041c-0.498-0.247-0.926-0.37-1.284-0.37
			c-0.345,0-0.622,0.104-0.831,0.311c-0.209,0.208-0.313,0.491-0.313,0.85c0,0.287,0.087,0.57,0.263,0.85
			c0.176,0.279,0.537,0.703,1.085,1.272c0.548,0.568,0.937,1.078,1.165,1.528c0.229,0.45,0.343,0.946,0.343,1.487
			c0,0.821-0.232,1.501-0.697,2.043c-0.464,0.542-1.055,0.812-1.771,0.812c-0.464,0-1.008-0.147-1.632-0.442v-1.611
			c0.606,0.294,1.119,0.442,1.538,0.442c0.313,0,0.558-0.102,0.734-0.305c0.177-0.203,0.265-0.477,0.265-0.819
			c0-0.319-0.118-0.657-0.353-1.016c-0.235-0.359-0.642-0.817-1.219-1.374c-0.83-0.805-1.244-1.729-1.244-2.772
			c0-0.82,0.227-1.503,0.682-2.049c0.454-0.546,1.02-0.818,1.696-0.818c0.417,0,0.942,0.131,1.572,0.394V14.041z"/>
		<polygon clip-path="url(#SVGID_8_)" fill="#FFFFFF" points="89.731,13.814 88.686,13.814 88.686,22.705 87.054,22.705 
			87.054,13.814 86.01,13.814 86.01,12.275 87.054,12.275 87.054,9.435 88.686,9.435 88.686,12.275 89.731,12.275 		"/>
		<path clip-path="url(#SVGID_8_)" fill="#FFFFFF" d="M95.005,13.814c-0.75,0.024-1.284,0.195-1.602,0.513
			c-0.319,0.318-0.478,1.026-0.478,2.124v6.253h-1.652v-10.43h1.652v1.54h0.04c0.478-1.13,1.121-1.695,1.931-1.695l0.11,0.023
			V13.814z"/>
		<path clip-path="url(#SVGID_8_)" fill="#FFFFFF" d="M101.642,17.836h-3.662c0,1.129,0.065,1.983,0.194,2.56
			c0.129,0.576,0.436,0.865,0.92,0.865c0.371,0,0.624-0.167,0.756-0.501c0.132-0.334,0.202-0.859,0.209-1.575h1.482
			c-0.047,2.442-0.909,3.664-2.587,3.664c-1.804,0-2.707-1.71-2.707-5.131c0-3.732,0.936-5.597,2.807-5.597
			c0.709,0,1.318,0.322,1.825,0.967c0.508,0.644,0.762,1.977,0.762,3.998V17.836z M100,16.32c0-1.035-0.07-1.776-0.209-2.226
			c-0.139-0.449-0.391-0.674-0.756-0.674c-0.431,0-0.714,0.237-0.851,0.71c-0.136,0.474-0.204,1.203-0.204,2.19H100z"/>
		<polygon clip-path="url(#SVGID_8_)" fill="#FFFFFF" points="106.855,13.814 105.81,13.814 105.81,22.705 104.179,22.705 
			104.179,13.814 103.134,13.814 103.134,12.275 104.179,12.275 104.179,9.435 105.81,9.435 105.81,12.275 106.855,12.275 		"/>
		<path clip-path="url(#SVGID_8_)" fill="#FFFFFF" d="M112.269,22.382c-0.538,0.311-1.028,0.466-1.473,0.466
			c-0.889,0-1.539-0.438-1.95-1.313c-0.412-0.875-0.617-2.251-0.617-4.129c0-1.997,0.262-3.381,0.786-4.153
			c0.524-0.772,1.134-1.158,1.831-1.158c0.345,0,0.812,0.123,1.402,0.37v1.659c-0.384-0.207-0.69-0.31-0.915-0.31
			c-0.471,0-0.812,0.304-1.025,0.913c-0.212,0.609-0.318,1.565-0.318,2.87c0,2.363,0.428,3.544,1.284,3.544
			c0.245,0,0.577-0.124,0.995-0.37V22.382z"/>
		<path clip-path="url(#SVGID_8_)" fill="#FFFFFF" d="M119.253,22.705h-1.602v-7.578c0-0.994-0.335-1.492-1.005-1.492
			c-0.69,0-1.035,0.553-1.035,1.659v7.411h-1.652V6.988h1.652v6.157c0.563-0.684,1.161-1.026,1.791-1.026
			c1.234,0,1.851,0.8,1.851,2.398V22.705z"/>
	</g>
</g>
</svg>
