<?xml version="1.0" encoding="utf-8"?>
<!-- Generator: Adobe Illustrator 15.0.0, SVG Export Plug-In  -->
<!DOCTYPE svg PUBLIC "-//W3C//DTD SVG 1.1//EN" "http://www.w3.org/Graphics/SVG/1.1/DTD/svg11.dtd" [
	<!ENTITY ns_flows "http://ns.adobe.com/Flows/1.0/">
]>
<svg version="1.1"
	 xmlns="http://www.w3.org/2000/svg" xmlns:xlink="http://www.w3.org/1999/xlink" xmlns:a="http://ns.adobe.com/AdobeSVGViewerExtensions/3.0/"
	 x="0px" y="0px" width="45px" height="45px" viewBox="-5.729 -5.944 45 45"
	 overflow="visible" enable-background="new -5.729 -5.944 45 45" xml:space="preserve">
<defs>
</defs>
<path fill="#231F20" d="M16.717,11.711c0,8.928-7.199,14.495-15.167,16.319c-1.632-0.192-2.016-2.304-0.96-2.976
	c3.456-1.248,8.159-4.416,8.159-8.928c0-4.031-2.976-5.376-5.279-5.951c-1.632-0.48-2.88-2.017-2.88-4.224
	C0.591,2.688,3.566,0,7.214,0C11.15,0,16.717,3.36,16.717,11.711z M37.74,11.711c0,8.928-7.199,14.495-15.166,16.319
	c-1.633-0.192-2.017-2.304-0.961-2.976c3.456-1.248,8.16-4.416,8.16-8.928c0-4.031-2.977-5.376-5.279-5.951
	c-1.633-0.48-2.881-2.017-2.881-4.224C21.613,2.688,24.589,0,28.237,0C32.172,0,37.74,3.36,37.74,11.711z"/>
</svg>
