<?xml version="1.0" encoding="utf-8"?>
<!-- Generator: Adobe Illustrator 15.0.0, SVG Export Plug-In  -->
<!DOCTYPE svg PUBLIC "-//W3C//DTD SVG 1.1//EN" "http://www.w3.org/Graphics/SVG/1.1/DTD/svg11.dtd" [
	<!ENTITY ns_flows "http://ns.adobe.com/Flows/1.0/">
]>
<svg version="1.1"
	 xmlns="http://www.w3.org/2000/svg" xmlns:xlink="http://www.w3.org/1999/xlink" xmlns:a="http://ns.adobe.com/AdobeSVGViewerExtensions/3.0/"
	 x="0px" y="0px" width="50px" height="45px" viewBox="-5.76 -5.619 50 45"
	 overflow="visible" enable-background="new -5.76 -5.619 50 45" xml:space="preserve">
<defs>
</defs>
<path fill="#231F20" d="M0,16.319C0,7.392,7.199,1.824,15.167,0c1.631,0.192,2.016,2.304,0.96,2.976
	c-3.456,1.248-8.16,4.416-8.16,8.927c0,4.032,2.976,5.376,5.28,5.952c1.632,0.48,2.88,2.016,2.88,4.224
	c0,3.264-2.976,5.951-6.624,5.951C5.567,28.029,0,24.67,0,16.319z M21.022,16.319C21.022,7.392,28.221,1.824,36.19,0
	c1.631,0.192,2.016,2.304,0.959,2.976c-3.455,1.248-8.159,4.416-8.159,8.927c0,4.032,2.976,5.376,5.28,5.952
	c1.631,0.48,2.879,2.016,2.879,4.224c0,3.264-2.976,5.951-6.623,5.951C26.59,28.029,21.022,24.67,21.022,16.319z"/>
</svg>
